<?xml version="1.0" standalone="no"?>
<!DOCTYPE svg PUBLIC "-//W3C//DTD SVG 20010904//EN"
 "http://www.w3.org/TR/2001/REC-SVG-20010904/DTD/svg10.dtd">
<svg version="1.0" xmlns="http://www.w3.org/2000/svg"
 width="300.000000pt" height="170.000000pt" viewBox="0 0 300.000000 170.000000"
 preserveAspectRatio="xMidYMid meet">

<g transform="translate(0.000000,170.000000) scale(0.100000,-0.100000)"
fill="#000000" stroke="none">
<path d="M2201 1107 c-206 -119 -191 -99 -191 -259 0 -73 4 -138 8 -144 4 -6
50 -36 102 -66 52 -30 123 -72 157 -92 34 -20 67 -36 75 -36 7 0 85 43 173 94
l160 94 2 144 c2 78 0 148 -5 153 -10 15 -321 196 -334 195 -2 0 -68 -38 -147
-83z m276 -63 c62 -36 113 -67 113 -69 0 -6 -229 -135 -239 -135 -9 0 -71 34
-175 96 -27 16 -51 34 -52 39 -4 11 203 134 225 134 8 1 65 -29 128 -65z
m-341 -160 c25 -15 43 -31 41 -38 -3 -11 -75 -56 -89 -56 -5 0 -8 27 -8 60 0
33 3 60 6 60 3 0 26 -12 50 -26z m480 -91 c-6 -6 -96 47 -96 56 0 4 21 19 48
34 l47 26 3 -56 c2 -30 1 -57 -2 -60z m-309 -9 l44 -25 46 26 46 25 69 -40
c37 -23 68 -45 68 -49 0 -5 -51 -39 -114 -75 l-113 -66 -114 65 c-63 36 -114
69 -114 75 0 8 120 88 134 90 2 0 24 -12 48 -26z"/>
<path d="M400 1005 c-25 -30 15 -70 45 -45 19 16 19 25 -1 44 -19 20 -28 20
-44 1z"/>
<path d="M493 1013 c-18 -7 -16 -52 3 -60 23 -9 51 23 38 44 -12 19 -23 24
-41 16z"/>
<path d="M640 880 l0 -141 -32 3 -33 3 -3 88 -3 87 -93 0 c-109 0 -139 -15
-156 -81 -28 -104 55 -192 146 -154 25 10 41 12 48 5 16 -16 624 -13 656 3 21
11 31 11 59 0 41 -17 81 -9 115 22 24 22 26 30 26 115 l0 90 -30 0 -30 0 0
-71 c0 -78 -11 -109 -39 -109 -29 0 -40 21 -43 85 -3 60 -3 60 -35 63 l-33 3
0 -64 c0 -71 -12 -91 -52 -85 -21 3 -23 8 -26 76 l-3 72 -29 0 -29 0 -3 -72
-3 -73 -32 -3 -32 -3 6 49 c7 61 -15 104 -65 128 -51 24 -98 11 -144 -38 l-37
-40 -3 88 -3 89 -32 3 -33 3 0 -141z m-132 -57 c5 -74 -62 -119 -108 -73 -34
34 -22 98 20 113 8 3 31 5 50 4 34 -2 35 -4 38 -44z m376 21 c23 -22 20 -51
-9 -79 -21 -22 -33 -25 -95 -25 -38 0 -70 4 -70 8 0 4 22 31 50 60 53 56 93
68 124 36z"/>
<path d="M1474 887 c-89 -82 -34 -207 92 -207 19 0 34 -4 34 -8 0 -20 -28 -32
-71 -32 -40 0 -48 -3 -52 -22 -9 -32 -1 -38 51 -38 61 0 110 29 119 70 l6 30
73 0 74 0 0 120 0 120 -30 0 -29 0 -3 -87 -3 -88 -37 -3 -38 -3 0 90 0 91 -75
0 c-71 0 -77 -2 -111 -33z m114 -34 c5 -10 7 -39 4 -65 -4 -45 -6 -48 -32 -48
-41 0 -72 42 -59 78 18 49 70 70 87 35z"/>
<path d="M1753 643 c-18 -7 -16 -52 3 -60 23 -9 51 23 38 44 -12 19 -23 24
-41 16z"/>
</g>
</svg>
