<?xml version="1.0" standalone="no"?>
<!DOCTYPE svg PUBLIC "-//W3C//DTD SVG 20010904//EN"
 "http://www.w3.org/TR/2001/REC-SVG-20010904/DTD/svg10.dtd">
<svg version="1.0" xmlns="http://www.w3.org/2000/svg"
 width="842.000000pt" height="400.000000pt" viewBox="0 0 842.000000 400.000000"
 preserveAspectRatio="xMidYMid meet">

<g transform="translate(0.000000,400.000000) scale(0.100000,-0.100000)"
fill="#000000" stroke="none">
<path d="M1838 2991 c-60 -33 -871 -503 -894 -518 -42 -27 -44 -46 -44 -466 0
-375 1 -404 19 -432 26 -43 933 -565 981 -565 48 0 955 522 981 565 18 28 19
57 19 433 0 354 -2 407 -16 431 -20 33 35 0 -496 307 -278 161 -456 258 -478
261 -23 3 -47 -3 -72 -16z m413 -402 c192 -111 349 -204 349 -208 -1 -11 -681
-396 -700 -396 -22 0 -700 387 -697 398 2 6 685 406 696 407 1 0 160 -91 352
-201z m-978 -489 c81 -47 147 -88 147 -91 0 -8 -296 -179 -310 -179 -6 0 -10
64 -10 181 0 142 3 180 13 177 7 -2 79 -41 160 -88z m1427 -90 c0 -116 -4
-180 -10 -180 -14 0 -310 171 -310 179 0 8 292 179 308 180 9 1 12 -41 12
-179z m-951 -185 c80 -45 128 -65 151 -65 23 0 71 21 151 65 l117 65 212 -122
c116 -68 211 -127 212 -132 0 -9 -677 -406 -692 -406 -14 0 -692 397 -692 405
0 7 402 250 421 254 2 1 56 -28 120 -64z"/>
<path d="M3500 2020 l0 -511 81 3 82 3 19 52 20 51 30 -33 c16 -19 55 -47 86
-62 49 -24 69 -28 142 -28 112 1 171 26 243 105 70 75 98 146 104 266 9 154
-31 269 -124 354 -67 61 -133 85 -233 84 -88 -1 -147 -23 -209 -79 l-41 -37 0
171 0 171 -100 0 -100 0 0 -510z m498 79 c79 -39 119 -137 101 -250 -17 -106
-89 -169 -193 -169 -68 0 -102 12 -143 52 -71 68 -79 216 -18 309 48 74 164
101 253 58z"/>
<path d="M6082 2098 c4 -341 6 -399 21 -437 43 -111 127 -165 257 -165 102 -1
161 18 219 70 40 36 90 118 79 129 -2 2 -38 14 -80 26 l-76 22 -35 -36 c-29
-31 -41 -37 -75 -37 -29 0 -49 7 -69 24 l-28 24 -3 196 -3 196 155 0 156 0 0
90 0 90 -155 0 -155 0 0 100 0 100 -106 0 -106 0 4 -392z"/>
<path d="M4704 2295 c-166 -36 -277 -153 -306 -325 -31 -182 59 -366 214 -435
216 -97 464 -21 558 169 41 83 56 177 42 261 -29 177 -139 294 -309 330 -82
18 -119 18 -199 0z m217 -210 c99 -70 119 -230 41 -334 -69 -92 -237 -94 -314
-3 -38 45 -51 94 -46 172 5 85 40 143 108 178 65 33 153 28 211 -13z"/>
<path d="M5542 2299 c-179 -30 -273 -152 -231 -302 25 -91 99 -134 293 -166
61 -11 122 -24 136 -29 64 -25 78 -88 27 -126 -21 -15 -47 -22 -103 -24 -93
-5 -152 15 -193 65 l-28 35 -87 -18 c-95 -19 -98 -22 -66 -83 59 -117 246
-182 439 -152 99 16 163 45 210 96 66 71 77 165 31 255 -36 70 -115 107 -293
135 -119 19 -163 36 -179 70 -10 22 -8 30 9 53 23 31 49 40 118 41 64 1 130
-29 153 -69 9 -16 22 -30 27 -30 18 0 166 37 172 43 11 11 -39 96 -75 128 -47
42 -102 65 -182 78 -74 12 -103 12 -178 0z"/>
<path d="M6973 2300 c-88 -19 -175 -80 -220 -157 -107 -182 -75 -438 70 -569
122 -110 325 -108 439 3 l38 37 13 -35 c8 -19 17 -42 20 -51 5 -15 19 -18 87
-18 l80 0 0 390 0 391 -82 -3 -81 -3 -14 -39 c-7 -22 -15 -42 -18 -45 -3 -2
-20 9 -38 27 -64 62 -193 93 -294 72z m235 -212 c116 -77 116 -299 0 -376 -56
-37 -148 -43 -206 -13 -78 40 -119 141 -101 252 18 111 94 173 205 167 46 -3
72 -11 102 -30z"/>
</g>
</svg>
